<?xml version="1.0" encoding="utf-8"?>
<!-- Generator: Adobe Illustrator 21.0.0, SVG Export Plug-In . SVG Version: 6.00 Build 0)  -->
<svg version="1.1" id="Livello_1" xmlns="http://www.w3.org/2000/svg" xmlns:xlink="http://www.w3.org/1999/xlink" x="0px" y="0px"
	 viewBox="0 0 772 250" style="enable-background:new 0 0 772 250;" xml:space="preserve">
<style type="text/css">
	.st0{fill:#3C3C3B;}
	.st1{fill:none;}
	.st2{fill:#FD0000;}
	.st3{fill:#0088CC;}
	.st4{fill:#FFFFFF;}
</style>
<rect y="0" class="st0" width="772" height="250"/>
<path class="st1" d="M638.8,118.7l1.6-1.1C639.8,117.6,639.3,118.1,638.8,118.7z"/>
<path class="st2" d="M587.6,117.8l-3.1-2.4C585.3,116.4,586.3,117.2,587.6,117.8z"/>
<path class="st3" d="M727,152.3h5.9V98.4H727v5.9h-22.1V76.4H743C725.2,41.7,689.1,18,647.4,18s-77.8,23.7-95.6,58.4H592l15.6,15.6
	v29.5L592,137.2h-27.9v15.1h5.9v22.1h-18.2c17.8,34.7,53.9,58.4,95.6,58.4s77.8-23.7,95.6-58.4h-16V152.3z"/>
<path class="st1" d="M639.1,119.1l1.5-1.1C640.2,118.1,639.8,118.5,639.1,119.1z"/>
<path class="st4" d="M697.5,120.2l-17.7,83.5c-1.3,5.9-4.8,7.4-9.8,4.6l-27-19.9L630,201c-1.4,1.4-2.6,2.6-5.4,2.6l1.9-27.5l50-45.2
	c2.2-1.9-0.5-3-3.4-1.1l-61.8,38.9l-26.6-8.3c-5.8-1.8-5.9-5.8,1.2-8.6L690,111.8C694.9,110,699.1,112.8,697.5,120.2z"/>
<g>
	<path d="M591.9,56.5c-0.1,0-0.2,0-0.4,0v1.2l0,0.3c0,0.2,0.1,0.4,0.3,0.4c0.1,0,0.2,0,0.3,0c0.1,0,0.3,0,0.3,0
		c0.6,0,0.9,0.4,0.9,1.1c0,0.4-0.1,0.7-0.3,1c-0.2,0.2-0.5,0.4-0.8,0.4c-0.2,0-0.4,0-0.8-0.1c-0.3,0-0.6-0.1-0.8-0.1
		c-0.2,0-0.5,0-1,0.1c-0.4,0-0.8,0.1-1,0.1c-0.3,0-0.6-0.1-0.8-0.4c-0.2-0.3-0.3-0.6-0.3-1c0-0.3,0.1-0.6,0.2-0.8
		c0.1-0.2,0.3-0.3,0.5-0.3c0,0,0,0,0.1,0c0,0,0.1,0,0.1,0c0,0,0.1,0,0.1,0c0.2,0,0.3-0.1,0.3-0.3v-6.5c0-0.2-0.1-0.3-0.3-0.3
		c0,0-0.1,0-0.2,0c-0.1,0-0.1,0-0.2,0c-0.2,0-0.4-0.1-0.5-0.3c-0.1-0.2-0.2-0.5-0.2-0.8c0-0.4,0.1-0.7,0.3-1
		c0.2-0.3,0.5-0.4,0.8-0.4c0.3,0,0.6,0,1.1,0.1c0.5,0,0.9,0.1,1.1,0.1c0.3,0,0.6,0,1.1-0.1c0.5,0,0.9-0.1,1.1-0.1
		c1,0,1.7,0.4,2.3,1.1c0.6,0.7,0.9,1.7,0.9,2.8c0,1.5-0.4,2.5-1.2,3.3c-0.4,0.4-0.9,0.6-1.5,0.7C593.2,56.5,592.7,56.5,591.9,56.5z
		 M591.5,51.9v2.3c0.1,0,0.3,0,0.5,0c1,0,1.6-0.5,1.6-1.6c0-0.5-0.1-0.9-0.4-1.2c-0.2-0.3-0.6-0.4-1-0.4c-0.3,0-0.5,0.1-0.6,0.2
		C591.5,51.4,591.5,51.6,591.5,51.9z"/>
	<path d="M600.6,61c-1.1,0-2-0.4-2.6-1.2c-0.6-0.8-0.9-2-0.9-3.5c0-1.5,0.3-2.7,0.9-3.5c0.6-0.8,1.5-1.2,2.6-1.2
		c1.1,0,2,0.4,2.6,1.2c0.6,0.8,0.9,1.9,0.9,3.4c0,1.6-0.3,2.8-0.9,3.6C602.6,60.6,601.8,61,600.6,61z M600.7,53.7
		c-0.8,0-1.2,0.8-1.2,2.4c0,0,0,0.1,0,0.2c0,0.8,0.1,1.4,0.3,1.8c0.2,0.5,0.5,0.7,0.9,0.7c0.8,0,1.2-0.9,1.2-2.6
		c0-0.8-0.1-1.4-0.3-1.9C601.3,53.9,601,53.7,600.7,53.7z"/>
	<path d="M607.8,51.6c0.5,0,1.1,0.2,1.8,0.7c0.1-0.4,0.3-0.6,0.8-0.6c0.6,0,0.9,0.2,0.9,0.7v0.9v0.9c0,0.5-0.3,0.7-0.8,0.7
		c-0.3,0-0.5,0-0.7-0.1c-0.1-0.1-0.2-0.2-0.4-0.5c-0.3-0.5-0.6-0.8-1-0.8c-0.5,0-0.8,0.2-0.8,0.7c0,0.3,0.1,0.5,0.3,0.6
		c0.2,0.1,0.6,0.2,1.3,0.4c1.1,0.2,1.8,0.7,2.1,1.3c0.2,0.4,0.3,0.9,0.3,1.4c0,0.9-0.3,1.7-0.8,2.2c-0.5,0.6-1.2,0.9-2,0.9
		c-0.7,0-1.4-0.3-2-0.8c-0.1,0.4-0.3,0.6-0.8,0.6c-0.6,0-0.9-0.3-0.9-0.8l0.1-1v-0.5c0-0.1,0-0.2,0-0.3c0-0.1,0-0.2,0-0.2
		c0-0.5,0.3-0.8,0.9-0.8c0.3,0,0.6,0,0.7,0.1c0.1,0.1,0.2,0.3,0.4,0.6c0.3,0.7,0.7,1,1.2,1c0.6,0,0.9-0.3,0.9-0.8
		c0-0.4-0.3-0.7-0.8-0.8l-0.8-0.2c-1.5-0.3-2.2-1.2-2.2-2.7c0-0.8,0.2-1.5,0.7-2.1C606.5,51.8,607.1,51.6,607.8,51.6z"/>
	<path d="M615.8,54.2v4c0,0.3,0.1,0.5,0.3,0.5c0.2,0,0.4-0.2,0.4-0.6v-1c0-0.5,0.2-0.8,0.7-0.8c0.4,0,0.6,0.1,0.7,0.3
		c0.1,0.2,0.2,0.7,0.2,1.3c0,0.8-0.1,1.4-0.3,1.8c-0.3,0.8-1,1.2-2.1,1.2c-0.7,0-1.3-0.2-1.7-0.7c-0.4-0.4-0.7-1-0.7-1.8v-4.3
		c0-0.4-0.1-0.6-0.3-0.6h-0.5c-0.5,0-0.7-0.3-0.7-0.9c0-0.4,0.1-0.7,0.2-0.8c0.1-0.2,0.4-0.2,0.7-0.2h0.3c0.2,0,0.3-0.1,0.3-0.3V50
		c0-0.6,0.4-0.8,1.2-0.8c0.4,0,0.7,0.1,0.9,0.2c0.2,0.1,0.2,0.4,0.2,0.7v1.3c0,0.2,0.1,0.3,0.4,0.3h0.8c0.6,0,0.9,0.3,0.9,1
		c0,0.4-0.1,0.6-0.2,0.8c-0.1,0.1-0.3,0.2-0.6,0.2h-0.8c-0.3,0-0.5,0-0.5,0.1C615.8,53.8,615.8,54,615.8,54.2z"/>
	<path d="M626.5,54.2v4c0,0.3,0.1,0.5,0.3,0.5c0.2,0,0.4-0.2,0.4-0.6v-1c0-0.5,0.2-0.8,0.7-0.8c0.4,0,0.6,0.1,0.7,0.3
		c0.1,0.2,0.2,0.7,0.2,1.3c0,0.8-0.1,1.4-0.3,1.8c-0.3,0.8-1,1.2-2.1,1.2c-0.7,0-1.3-0.2-1.7-0.7c-0.4-0.4-0.7-1-0.7-1.8v-4.3
		c0-0.4-0.1-0.6-0.3-0.6h-0.5c-0.5,0-0.7-0.3-0.7-0.9c0-0.4,0.1-0.7,0.2-0.8c0.1-0.2,0.4-0.2,0.7-0.2h0.3c0.2,0,0.3-0.1,0.3-0.3V50
		c0-0.6,0.4-0.8,1.2-0.8c0.4,0,0.7,0.1,0.9,0.2c0.2,0.1,0.2,0.4,0.2,0.7v1.3c0,0.2,0.1,0.3,0.4,0.3h0.8c0.6,0,0.9,0.3,0.9,1
		c0,0.4-0.1,0.6-0.2,0.8c-0.1,0.1-0.3,0.2-0.6,0.2h-0.8c-0.3,0-0.5,0-0.5,0.1C626.5,53.8,626.5,54,626.5,54.2z"/>
	<path d="M633.2,61c-1.1,0-2-0.4-2.6-1.2c-0.6-0.8-0.9-2-0.9-3.5c0-1.5,0.3-2.7,0.9-3.5c0.6-0.8,1.5-1.2,2.6-1.2
		c1.1,0,2,0.4,2.6,1.2c0.6,0.8,0.9,1.9,0.9,3.4c0,1.6-0.3,2.8-0.9,3.6C635.2,60.6,634.4,61,633.2,61z M633.3,53.7
		c-0.8,0-1.2,0.8-1.2,2.4c0,0,0,0.1,0,0.2c0,0.8,0.1,1.4,0.3,1.8c0.2,0.5,0.5,0.7,0.9,0.7c0.8,0,1.2-0.9,1.2-2.6
		c0-0.8-0.1-1.4-0.3-1.9C633.9,53.9,633.6,53.7,633.3,53.7z"/>
	<path d="M645.2,57.9v-6.1c0-0.3,0-0.5,0-0.7c-0.1-0.2-0.2-0.4-0.5-0.4c-0.3,0-0.5,0.2-0.5,0.7v0.1l0.1,0.6c0,0.1,0,0.2,0,0.4
		c0,1-0.4,1.6-1.1,1.6c-0.7,0-1.1-0.4-1.1-1.3c0-0.2,0-0.5,0-1c0-0.4,0-0.7,0-1c0-0.2,0-0.4,0-0.8c0-0.4,0-0.6,0-0.8
		c0-0.6,0.3-0.9,0.9-0.9h0.1l1.7,0.1c0.8,0,1.6,0.1,2.4,0.1c0.6,0,1.2,0,1.5-0.1c0.5,0,1-0.1,1.4-0.1c0.6,0,0.9,0.3,0.9,1
		c0,0,0,0.1,0,0.3c0,0.2,0,0.3,0,0.6c0,0.5,0,0.8,0,0.7c0,0.2,0,0.5,0,0.8c0,0.4,0,0.7,0,0.8c0,1-0.4,1.5-1.1,1.5
		c-0.8,0-1.2-0.5-1.2-1.5c0-0.3,0-0.6,0-0.8l0.1-0.6c0-0.4-0.2-0.6-0.5-0.6c-0.3,0-0.5,0.3-0.5,1v6.1c0,0.3,0.1,0.4,0.2,0.4
		c0.1,0,0.2,0,0.3,0c0.1,0,0.2,0,0.3,0c0.6,0,0.9,0.4,0.9,1.2c0,0.4-0.1,0.7-0.3,1c-0.2,0.2-0.5,0.4-0.8,0.4c-0.2,0-0.5,0-0.9-0.1
		c-0.4,0-0.7-0.1-0.9-0.1c-0.2,0-0.5,0-1,0.1c-0.4,0-0.7,0.1-1,0.1c-0.3,0-0.6-0.1-0.8-0.4c-0.2-0.2-0.3-0.6-0.3-1
		c0-0.8,0.3-1.2,0.9-1.2c0.1,0,0.1,0,0.3,0c0.1,0,0.2,0,0.3,0C645.2,58.3,645.2,58.2,645.2,57.9z"/>
	<path d="M657.7,56.8H654v0.3c0,1.3,0.4,1.9,1.2,1.9c0.5,0,0.9-0.3,1-0.9c0.1-0.3,0.2-0.6,0.3-0.7c0.1-0.1,0.3-0.1,0.7-0.1
		c0.8,0,1.1,0.4,1.1,1.1c0,0.7-0.3,1.3-0.9,1.8c-0.6,0.5-1.3,0.7-2.2,0.7c-1.2,0-2.1-0.4-2.7-1.2c-0.6-0.8-1-1.9-1-3.3
		c0-1.5,0.3-2.7,0.9-3.6c0.6-0.9,1.5-1.3,2.6-1.3c1,0,1.8,0.4,2.4,1.1c0.6,0.7,0.9,1.7,0.9,2.9c0,0.5-0.1,0.8-0.2,1
		C658.2,56.7,658,56.8,657.7,56.8z M654.1,55h2v-0.2c0-0.4-0.1-0.7-0.3-0.9c-0.2-0.2-0.4-0.3-0.7-0.3C654.5,53.5,654.2,54,654.1,55z
		"/>
	<path d="M662.1,48.6c0.3,0,0.5,0.2,0.5,0.6V58c0,0.5,0.1,0.8,0.3,0.8c0,0,0,0,0.1,0c0,0,0.1,0,0.1,0c0,0,0.1,0,0.2,0
		c0.4,0,0.6,0.3,0.6,0.8c0,0.8-0.3,1.2-0.9,1.2c-0.1,0-0.4,0-0.8-0.1c-0.3,0-0.5,0-0.8,0c-0.1,0-0.4,0-0.7,0c-0.3,0-0.5,0-0.7,0
		c-0.6,0-0.9-0.4-0.9-1.1c0-0.6,0.2-0.9,0.6-0.9c0.1,0,0.1,0,0.2,0c0,0,0.1,0,0.1,0c0,0,0.1,0,0.1,0c0.2,0,0.3-0.3,0.3-0.8v-6.6
		c0-0.5-0.1-0.8-0.2-0.8c0,0-0.1,0-0.2,0c-0.1,0-0.1,0-0.2,0c-0.4,0-0.6-0.3-0.6-1c0-0.7,0.3-1.1,0.8-1.1c0.1,0,0.4,0,0.7,0.1
		c0.3,0,0.5,0,0.7,0L662.1,48.6L662.1,48.6z"/>
	<path d="M670.3,56.8h-3.7v0.3c0,1.3,0.4,1.9,1.2,1.9c0.5,0,0.9-0.3,1-0.9c0.1-0.3,0.2-0.6,0.3-0.7c0.1-0.1,0.3-0.1,0.7-0.1
		c0.8,0,1.1,0.4,1.1,1.1c0,0.7-0.3,1.3-0.9,1.8s-1.3,0.7-2.2,0.7c-1.2,0-2.1-0.4-2.7-1.2c-0.6-0.8-1-1.9-1-3.3
		c0-1.5,0.3-2.7,0.9-3.6c0.6-0.9,1.5-1.3,2.6-1.3c1,0,1.8,0.4,2.4,1.1c0.6,0.7,0.9,1.7,0.9,2.9c0,0.5-0.1,0.8-0.2,1
		C670.8,56.7,670.6,56.8,670.3,56.8z M666.8,55h2v-0.2c0-0.4-0.1-0.7-0.3-0.9c-0.2-0.2-0.4-0.3-0.7-0.3
		C667.2,53.5,666.8,54,666.8,55z"/>
	<path d="M677.2,52v0.1c0.9,0.5,1.3,1.4,1.3,2.6c0,0.9-0.3,1.7-0.8,2.3c-0.5,0.6-1.3,0.9-2.1,0.9c-0.5,0-1-0.1-1.4-0.3
		c-0.2,0.1-0.3,0.3-0.3,0.4c0,0.3,0.5,0.5,1.6,0.6c0.4,0,0.8,0,1.1,0.1c0.4,0,0.8,0.1,1.2,0.3c0.9,0.4,1.4,1.2,1.4,2.2
		c0,1-0.4,1.7-1.1,2.3c-0.7,0.6-1.7,0.9-2.8,0.9c-1.1,0-2-0.2-2.6-0.7c-0.6-0.5-0.9-1.1-0.9-1.9c0-0.8,0.3-1.4,1-1.9
		c-0.5-0.4-0.8-0.9-0.8-1.6c0-0.6,0.3-1.3,1-1.9c-0.3-0.5-0.4-1.1-0.4-1.8c0-0.9,0.3-1.6,0.8-2.1c0.6-0.5,1.3-0.8,2.2-0.8h0.1
		c0.1-1.2,0.7-1.8,1.8-1.8c0.5,0,0.9,0.1,1.2,0.4c0.3,0.2,0.5,0.6,0.5,1c0,0.3-0.1,0.6-0.3,0.8c-0.2,0.2-0.4,0.3-0.6,0.3
		c-0.3,0-0.4-0.1-0.5-0.2l-0.2-0.2c0-0.1-0.1-0.1-0.2-0.1C677.3,51.7,677.2,51.8,677.2,52z M675.6,60.5c-0.3,0-0.5,0-0.8-0.1
		c-0.5,0.2-0.7,0.5-0.7,0.9c0,0.3,0.1,0.5,0.4,0.7c0.3,0.2,0.6,0.3,1,0.3c0.9,0,1.4-0.3,1.4-0.9C676.8,60.8,676.4,60.6,675.6,60.5z
		 M675.5,53.5c-0.5,0-0.7,0.4-0.7,1.3c0,0.8,0.2,1.2,0.7,1.2c0.2,0,0.4-0.1,0.5-0.4c0.1-0.2,0.2-0.5,0.2-0.9c0-0.3-0.1-0.6-0.2-0.9
		S675.7,53.5,675.5,53.5z"/>
	<path d="M682.8,52.1v0.4c0.5-0.6,1.1-0.9,1.8-0.9c0.5,0,0.9,0.2,1.2,0.6c0.3,0.4,0.5,0.9,0.5,1.5c0,0.5-0.1,0.9-0.3,1.3
		c-0.2,0.3-0.5,0.5-0.9,0.5c-0.3,0-0.6-0.1-0.7-0.4c-0.2-0.2-0.3-0.5-0.3-0.9c0-0.2,0-0.4,0.1-0.7c-0.5,0.4-0.8,1.4-0.8,3v1.3
		c0,0.6,0.1,0.8,0.2,0.8c0,0,0.1,0,0.2,0c0.2,0,0.3,0,0.3,0c0.2,0,0.3,0.1,0.4,0.3c0.1,0.2,0.2,0.4,0.2,0.7c0,0.3-0.1,0.5-0.2,0.7
		c-0.2,0.2-0.4,0.3-0.6,0.3c-0.1,0-0.3,0-0.7-0.1c-0.2,0-0.5,0-0.9,0c-0.3,0-0.6,0-0.9,0c-0.4,0-0.6,0.1-0.8,0.1
		c-0.3,0-0.5-0.1-0.6-0.3c-0.2-0.2-0.2-0.5-0.2-0.8c0-0.6,0.2-0.9,0.6-0.9c0.1,0,0.1,0,0.2,0c0,0,0.1,0,0.1,0s0.1,0,0.1,0
		c0.2,0,0.3-0.3,0.3-0.8v-3.5c0-0.5-0.1-0.8-0.2-0.8c0,0-0.1,0-0.2,0c-0.1,0-0.2,0-0.2,0c-0.4,0-0.6-0.3-0.6-1
		c0-0.7,0.3-1.1,0.8-1.1c0.1,0,0.3,0,0.5,0c0.2,0,0.4,0,0.5,0c0.2,0,0.4,0,0.7-0.1c0.1,0,0.2,0,0.3,0
		C682.7,51.7,682.8,51.8,682.8,52.1z"/>
	<path d="M692.9,60.9c-0.7,0-1.1-0.3-1.3-0.9c-0.6,0.6-1.4,0.9-2.2,0.9c-0.8,0-1.4-0.2-1.8-0.7c-0.5-0.5-0.7-1.1-0.7-2
		c0-0.9,0.2-1.5,0.6-2c0.4-0.4,1.1-0.8,2.1-0.9c0.5-0.1,0.9-0.2,1.1-0.4c0.2-0.2,0.3-0.4,0.3-0.7c0-0.6-0.2-0.9-0.7-0.9
		c-0.3,0-0.4,0.1-0.4,0.3c0,0.1,0,0.2,0,0.3V54c0,0.3-0.1,0.6-0.3,0.8c-0.2,0.2-0.5,0.3-0.8,0.3c-0.4,0-0.7-0.1-1-0.4
		c-0.3-0.3-0.4-0.6-0.4-1.1c0-0.6,0.3-1.1,0.8-1.5c0.5-0.4,1.2-0.6,2.1-0.6c1,0,1.8,0.2,2.2,0.7c0.5,0.5,0.7,1.2,0.7,2.3v3.6
		c0,0.4,0.1,0.6,0.2,0.6c0,0,0.1,0,0.1,0c0,0,0,0,0.1,0c0,0,0,0,0.1,0c0.4,0,0.6,0.3,0.6,0.8c0,0.4-0.1,0.7-0.4,1
		C693.6,60.8,693.3,60.9,692.9,60.9z M690.9,57.2v-0.3l-0.1,0l-0.5,0.2c-0.4,0.1-0.7,0.3-0.8,0.4c-0.1,0.2-0.2,0.4-0.2,0.7
		c0,0.6,0.3,0.9,0.8,0.9c0.3,0,0.5-0.1,0.7-0.3c0.2-0.2,0.3-0.5,0.3-0.8V57.2z"/>
	<path d="M697.9,52v0.5c0.4-0.6,1-0.9,1.8-0.9c0.6,0,1.2,0.3,1.8,1c0.7-0.7,1.4-1,2.2-1c0.7,0,1.3,0.3,1.8,0.8
		c0.5,0.5,0.7,1.1,0.7,1.9V58c0,0.5,0.1,0.8,0.3,0.8c0,0,0,0,0.1,0c0,0,0.1,0,0.1,0c0,0,0.1,0,0.2,0c0.4,0,0.6,0.3,0.6,0.9
		c0,0.3-0.1,0.6-0.2,0.8c-0.2,0.2-0.4,0.3-0.6,0.3c0,0-0.2,0-0.5,0c-0.2,0-0.5-0.1-0.7-0.1c-0.1,0-0.4,0-0.6,0c-0.3,0-0.5,0-0.6,0
		c-0.5,0-0.8-0.4-0.8-1.1c0-0.5,0.1-0.8,0.4-0.9c0.2-0.1,0.3-0.3,0.3-0.7v-2.6c0-1.1-0.3-1.6-0.8-1.6c-0.5,0-0.8,0.5-0.8,1.6v3
		c0,0.2,0.1,0.4,0.2,0.4c0.2,0.1,0.4,0.4,0.4,0.8c0,0.8-0.3,1.1-0.8,1.1c-0.1,0-0.3,0-0.5,0c-0.2,0-0.4,0-0.5,0c-0.1,0-0.3,0-0.5,0
		c-0.3,0-0.5,0.1-0.5,0.1c-0.5,0-0.8-0.4-0.8-1.3c0-0.4,0.1-0.6,0.3-0.8c0.2-0.1,0.3-0.2,0.3-0.4v-0.4v-2.5c0-1.1-0.3-1.6-0.8-1.6
		c-0.6,0-0.8,0.5-0.8,1.6v2.9c0,0.2,0,0.3,0.1,0.3c0,0,0.1,0.1,0.2,0.1c0.2,0.1,0.4,0.4,0.4,0.8c0,0.8-0.3,1.2-0.9,1.2
		c-0.1,0-0.3,0-0.6,0c-0.3,0-0.5,0-0.6,0c-0.1,0-0.3,0-0.6,0c-0.3,0-0.5,0-0.6,0c-0.6,0-0.9-0.4-0.9-1.1c0-0.6,0.2-0.9,0.6-0.9
		c0.1,0,0.1,0,0.2,0c0,0,0.1,0,0.1,0c0,0,0.1,0,0.1,0c0.2,0,0.3-0.3,0.3-0.8v-3.5c0-0.5-0.1-0.8-0.2-0.8c0,0-0.1,0-0.2,0
		c-0.1,0-0.2,0-0.2,0c-0.4,0-0.6-0.3-0.6-1c0-0.7,0.3-1.1,0.8-1.1c0.2,0,0.4,0,0.6,0.1c0.2,0,0.4,0,0.6,0c0.2,0,0.3,0,0.6,0
		c0.1,0,0.3-0.1,0.3-0.1C697.8,51.7,697.9,51.8,697.9,52z"/>
</g>
<g>
	<path class="st3" d="M49.2,125.3c-0.3,0-0.7,0-1.4,0.1v4.4l0.1,1c0,0.9,0.4,1.3,1.1,1.3c0.4,0,0.7,0,0.9-0.1c0.5-0.1,1-0.1,1.3-0.1
		c2.2,0,3.3,1.4,3.3,4.1c0,1.5-0.4,2.7-1.2,3.6c-0.8,0.9-1.8,1.4-2.9,1.4c-0.6,0-1.6-0.1-2.9-0.2c-1.3-0.1-2.3-0.2-3-0.2
		c-0.8,0-2,0.1-3.7,0.2c-1.7,0.1-2.9,0.2-3.7,0.2c-1.3,0-2.4-0.5-3.2-1.4c-0.8-0.9-1.2-2.2-1.2-3.7c0-1.2,0.3-2.2,0.8-3
		c0.5-0.8,1.2-1.2,1.9-1.2c0,0,0.2,0,0.3,0c0.2,0,0.3,0,0.4,0c0.1,0,0.3,0,0.5,0c0.6,0,0.9-0.4,0.9-1.2v-24.3c0-0.8-0.3-1.2-0.9-1.2
		c-0.1,0-0.3,0-0.6,0c-0.3,0-0.5,0-0.6,0c-0.8,0-1.4-0.4-1.9-1.2c-0.5-0.8-0.8-1.8-0.8-3c0-1.5,0.4-2.8,1.2-3.7
		c0.8-0.9,1.9-1.4,3.2-1.4c0.9,0,2.3,0.1,4.2,0.2c1.9,0.2,3.3,0.2,4.2,0.2c0.9,0,2.3-0.1,4.2-0.2c1.8-0.2,3.2-0.2,4.2-0.2
		c3.5,0,6.4,1.3,8.6,4c2.2,2.7,3.3,6.2,3.3,10.4c0,5.4-1.5,9.5-4.6,12.1c-1.6,1.3-3.5,2.2-5.7,2.6C54.2,125.1,52.1,125.2,49.2,125.3
		z M47.8,108.2v8.6c0.5,0.1,1.1,0.1,1.7,0.1c3.9,0,5.8-2,5.8-6c0-1.9-0.4-3.4-1.3-4.5c-0.9-1.1-2.1-1.6-3.6-1.6
		c-1.1,0-1.8,0.3-2.1,0.8C47.9,106,47.8,106.9,47.8,108.2z"/>
	<path class="st3" d="M81.7,141.8c-4.2,0-7.4-1.5-9.7-4.6c-2.3-3-3.5-7.4-3.5-12.9c0-5.7,1.2-10,3.5-13.1c2.3-3.1,5.6-4.6,9.9-4.6
		c4.1,0,7.3,1.5,9.6,4.5c2.3,3,3.4,7.2,3.4,12.5c0,5.8-1.1,10.3-3.4,13.5C89.2,140.2,86,141.8,81.7,141.8z M81.9,114.7
		c-2.9,0-4.4,3-4.5,8.9c0,0.2-0.1,0.4-0.1,0.7c0,2.9,0.4,5.1,1.2,6.8c0.8,1.7,1.9,2.5,3.2,2.5c2.9,0,4.4-3.2,4.4-9.6
		c0-2.9-0.4-5.2-1.1-6.9C84.2,115.6,83.2,114.7,81.9,114.7z"/>
	<path class="st3" d="M108.6,106.8c1.9,0,4.1,0.8,6.6,2.5c0.3-1.5,1.3-2.3,3-2.3c2.2,0,3.3,0.9,3.2,2.6v3.4v3.2
		c0,1.8-0.9,2.7-2.9,2.7c-1.2,0-2-0.1-2.4-0.4c-0.4-0.2-0.9-0.8-1.4-1.8c-1-1.9-2.3-2.9-3.8-2.9c-2,0-3,0.9-3,2.6
		c0,1,0.4,1.7,1.1,2.1c0.7,0.4,2.3,0.9,4.8,1.4c4,0.9,6.6,2.5,7.7,4.8c0.7,1.6,1.1,3.3,1.1,5.3c0,3.4-1,6.2-2.9,8.3
		c-2,2.1-4.5,3.2-7.5,3.2c-2.7,0-5.2-1.1-7.3-3.2c-0.2,1.5-1.2,2.2-2.8,2.2c-2.2,0-3.3-1-3.2-3l0.2-3.6v-1.9c0-0.3,0-0.7,0-1.1
		c0-0.4-0.1-0.6-0.1-0.7c0-1.9,1.1-2.9,3.3-2.9c1.2,0,2.1,0.2,2.5,0.5c0.5,0.3,0.9,1.1,1.4,2.3c0.9,2.5,2.4,3.7,4.4,3.7
		c2.2,0,3.3-1,3.3-3c0-1.6-1.1-2.6-3.2-3.1l-2.9-0.6c-5.5-1.2-8.3-4.5-8.3-10c0-3.1,0.9-5.7,2.6-7.6
		C103.7,107.7,105.9,106.8,108.6,106.8z"/>
	<path class="st3" d="M138.1,116.7v14.9c0,1.1,0.4,1.7,1.2,1.7c0.9,0,1.3-0.8,1.3-2.3v-3.8c0-2,0.9-3,2.7-3c1.3,0,2.3,0.4,2.8,1.3
		c0.5,0.9,0.7,2.4,0.7,4.8c0,3-0.3,5.2-1,6.8c-1.3,3.1-3.9,4.6-7.7,4.6c-2.6,0-4.7-0.8-6.3-2.5c-1.6-1.7-2.4-3.9-2.4-6.6v-15.9
		c0-1.4-0.4-2.1-1.2-2.1h-1.7c-1.8,0-2.8-1.1-2.8-3.3c0-1.5,0.2-2.6,0.7-3.2c0.5-0.6,1.3-0.9,2.6-0.9h1.2c0.8,0,1.1-0.4,1.1-1.2v-5
		c0-2.1,1.5-3.1,4.4-3.1c1.7,0,2.8,0.2,3.4,0.7c0.6,0.4,0.9,1.3,0.9,2.6v4.8c0,0.8,0.5,1.2,1.6,1.2h3.1c2.2,0,3.3,1.2,3.3,3.7
		c0,1.4-0.2,2.3-0.6,2.9c-0.4,0.5-1.2,0.8-2.2,0.8h-2.8c-1.1,0-1.7,0.1-2,0.3C138.2,115.1,138.1,115.7,138.1,116.7z"/>
	<path class="st3" d="M178.1,116.7v14.9c0,1.1,0.4,1.7,1.2,1.7c0.9,0,1.3-0.8,1.3-2.3v-3.8c0-2,0.9-3,2.7-3c1.3,0,2.3,0.4,2.8,1.3
		c0.5,0.9,0.7,2.4,0.7,4.8c0,3-0.3,5.2-1,6.8c-1.3,3.1-3.9,4.6-7.7,4.6c-2.6,0-4.7-0.8-6.3-2.5c-1.6-1.7-2.4-3.9-2.4-6.6v-15.9
		c0-1.4-0.4-2.1-1.2-2.1h-1.7c-1.8,0-2.8-1.1-2.8-3.3c0-1.5,0.2-2.6,0.7-3.2c0.5-0.6,1.3-0.9,2.6-0.9h1.2c0.8,0,1.1-0.4,1.1-1.2v-5
		c0-2.1,1.5-3.1,4.4-3.1c1.7,0,2.8,0.2,3.4,0.7c0.6,0.4,0.9,1.3,0.9,2.6v4.8c0,0.8,0.5,1.2,1.6,1.2h3.1c2.2,0,3.3,1.2,3.3,3.7
		c0,1.4-0.2,2.3-0.6,2.9c-0.4,0.5-1.2,0.8-2.2,0.8h-2.8c-1.1,0-1.7,0.1-2,0.3C178.2,115.1,178.1,115.7,178.1,116.7z"/>
	<path class="st3" d="M203.2,141.8c-4.2,0-7.4-1.5-9.7-4.6c-2.3-3-3.5-7.4-3.5-12.9c0-5.7,1.2-10,3.5-13.1c2.3-3.1,5.6-4.6,9.9-4.6
		c4.1,0,7.3,1.5,9.6,4.5c2.3,3,3.4,7.2,3.4,12.5c0,5.8-1.1,10.3-3.4,13.5C210.6,140.2,207.4,141.8,203.2,141.8z M203.3,114.7
		c-2.9,0-4.4,3-4.5,8.9c0,0.2-0.1,0.4-0.1,0.7c0,2.9,0.4,5.1,1.2,6.8c0.8,1.7,1.8,2.5,3.2,2.5c2.9,0,4.4-3.2,4.4-9.6
		c0-2.9-0.4-5.2-1.1-6.9C205.6,115.6,204.6,114.7,203.3,114.7z"/>
	<path class="st3" d="M247.8,130.5V108c0-1.2,0-2-0.1-2.4c-0.3-0.9-0.8-1.3-1.7-1.3c-1.1,0-1.7,0.8-1.7,2.5v0.5l0.3,2.3
		c0,0.4,0.1,0.9,0.1,1.6c0,3.9-1.4,5.8-4.2,5.8c-2.7,0-4-1.6-4-4.7c0-0.8,0.1-2,0.2-3.6c0.1-1.6,0.2-2.8,0.2-3.6
		c0-0.6-0.1-1.6-0.2-2.9c-0.1-1.3-0.2-2.3-0.2-2.9c0-2.3,1.1-3.5,3.3-3.5h0.3l6.3,0.3c3.2,0.1,6.1,0.2,8.8,0.2
		c2.4,0,4.3-0.1,5.7-0.2c1.9-0.2,3.6-0.3,5.1-0.3c2.3,0,3.4,1.3,3.4,3.8c0,0,0,0.4-0.1,0.9c0,0.6-0.1,1.3-0.1,2.1
		c0,2-0.1,2.9-0.1,2.6c0,0.7,0,1.8,0.1,3.2c0.1,1.4,0.1,2.4,0.1,3.2c0,3.7-1.3,5.5-4,5.5c-2.9,0-4.3-1.8-4.3-5.5
		c0-1.1,0-2.1,0.1-2.8l0.3-2.3c0-1.4-0.6-2.1-1.7-2.1c-1.2,0-1.8,1.2-1.8,3.6v22.8c0,1,0.3,1.5,0.9,1.5c0.2,0,0.6-0.1,1-0.2
		c0.4-0.1,0.8-0.2,1-0.2c2.2,0,3.2,1.4,3.2,4.3c0,1.5-0.4,2.7-1.2,3.6c-0.8,0.9-1.8,1.4-3.1,1.4c-0.8,0-1.9-0.1-3.5-0.2
		c-1.5-0.1-2.7-0.2-3.5-0.2c-0.8,0-2,0.1-3.6,0.2c-1.6,0.1-2.8,0.2-3.6,0.2c-1.2,0-2.2-0.5-3-1.4c-0.8-0.9-1.1-2.1-1.1-3.6
		c0-2.9,1.1-4.3,3.4-4.3c0.2,0,0.5,0.1,1,0.2c0.4,0.1,0.8,0.2,1,0.2C247.6,132,247.8,131.5,247.8,130.5z"/>
	<path class="st3" d="M294.1,126.1h-13.7v1.1c0,4.8,1.5,7.1,4.4,7.1c2,0,3.3-1.1,3.9-3.4c0.3-1.3,0.7-2.1,1.1-2.4
		c0.4-0.4,1.3-0.5,2.5-0.5c2.8,0,4.2,1.4,4.2,4.2c0,2.7-1.1,5-3.2,6.8c-2.1,1.8-4.8,2.7-8,2.7c-4.3,0-7.7-1.5-10.1-4.4
		c-2.4-2.9-3.6-7.1-3.6-12.3c0-5.7,1.2-10.2,3.5-13.4c2.3-3.2,5.5-4.8,9.7-4.8c3.7,0,6.7,1.3,8.9,4c2.2,2.7,3.3,6.3,3.3,10.8
		c0,1.8-0.2,3-0.6,3.6C296,125.8,295.3,126.1,294.1,126.1z M280.9,119.4h7.3v-0.7c0-1.3-0.3-2.4-0.9-3.3c-0.6-0.9-1.5-1.3-2.5-1.3
		C282.4,114.1,281.1,115.9,280.9,119.4z"/>
	<path class="st3" d="M310.5,95.7c1.3,0,1.9,0.8,1.9,2.3v32.6c0,1.9,0.4,2.8,1.1,2.8c0,0,0.1,0,0.3,0c0.1,0,0.2,0,0.3,0
		c0.1,0,0.3,0,0.6,0c1.4,0,2.2,1.1,2.2,3.2c0,2.9-1.1,4.3-3.4,4.3c-0.5,0-1.4-0.1-2.8-0.2c-0.9-0.1-2-0.1-3.1-0.1
		c-0.5,0-1.4,0.1-2.5,0.2c-1.1,0.1-2,0.2-2.5,0.2c-2.2,0-3.2-1.4-3.2-4.2c0-2.2,0.7-3.2,2.1-3.2c0.3,0,0.5,0,0.7,0
		c0.1,0,0.2,0,0.3,0c0.1,0,0.2,0,0.3,0c0.7,0,1.1-0.9,1.1-2.8v-24.7c0-1.9-0.3-2.8-0.9-2.8c-0.2,0-0.4,0-0.7,0.1
		c-0.3,0.1-0.5,0.1-0.7,0.1c-1.6,0-2.4-1.2-2.4-3.6c0-2.7,1.1-4,3.2-4c0.4,0,1.4,0.1,2.8,0.3c1.1,0.1,2,0.2,2.7,0.1l2.6-0.3H310.5z"
		/>
	<path class="st3" d="M341.3,126.1h-13.7v1.1c0,4.8,1.5,7.1,4.4,7.1c2,0,3.3-1.1,3.9-3.4c0.3-1.3,0.7-2.1,1.1-2.4
		c0.4-0.4,1.3-0.5,2.5-0.5c2.8,0,4.2,1.4,4.2,4.2c0,2.7-1.1,5-3.2,6.8s-4.8,2.7-8,2.7c-4.3,0-7.7-1.5-10.1-4.4
		c-2.4-2.9-3.6-7.1-3.6-12.3c0-5.7,1.2-10.2,3.5-13.4c2.3-3.2,5.5-4.8,9.7-4.8c3.7,0,6.7,1.3,8.9,4c2.2,2.7,3.3,6.3,3.3,10.8
		c0,1.8-0.2,3-0.6,3.6C343.2,125.8,342.4,126.1,341.3,126.1z M328,119.4h7.3v-0.7c0-1.3-0.3-2.4-0.9-3.3c-0.6-0.9-1.5-1.3-2.5-1.3
		C329.6,114.1,328.3,115.9,328,119.4z"/>
	<path class="st3" d="M366.9,108.2v0.4c3.3,2,4.9,5.3,4.9,9.8c0,3.5-1,6.3-3.1,8.4c-2,2.2-4.7,3.3-7.9,3.3c-1.8,0-3.5-0.4-5.1-1.3
		c-0.7,0.5-1,1-1,1.5c0,1.3,1.9,2,5.8,2.2c1.6,0.1,3,0.2,4,0.2c1.6,0.1,3.1,0.4,4.5,1.1c3.5,1.5,5.2,4.3,5.2,8.3
		c0,3.6-1.3,6.5-4,8.7c-2.7,2.2-6.2,3.4-10.5,3.4c-4.1,0-7.3-0.9-9.7-2.6c-2.4-1.7-3.5-4.1-3.5-7.1c0-2.9,1.3-5.3,3.8-7.2
		c-2-1.6-3-3.5-3-5.9c0-2.3,1.2-4.7,3.6-7.1c-1-2-1.5-4.3-1.5-6.7c0-3.3,1-6,3.1-8c2.1-2,4.8-3,8.3-3h0.4c0.2-4.5,2.4-6.8,6.7-6.8
		c1.8,0,3.3,0.5,4.4,1.4c1.1,0.9,1.7,2.1,1.7,3.6c0,1.2-0.3,2.1-0.9,2.9c-0.6,0.8-1.4,1.1-2.3,1.1c-1,0-1.7-0.2-2-0.7l-0.6-0.7
		c-0.1-0.2-0.3-0.3-0.6-0.3C367.1,107.3,366.9,107.6,366.9,108.2z M360.7,140.1c-0.9,0-2-0.1-3.1-0.3c-1.7,0.8-2.6,1.8-2.6,3.2
		c0,1,0.5,1.8,1.4,2.4c1,0.6,2.2,0.9,3.6,0.9c3.5,0,5.2-1.1,5.2-3.3C365.3,141.3,363.8,140.2,360.7,140.1z M360.6,113.9
		c-1.8,0-2.7,1.6-2.7,4.8c0,3,0.9,4.5,2.7,4.5c0.8,0,1.4-0.4,1.9-1.3c0.5-0.9,0.7-2,0.7-3.4c0-1.3-0.3-2.4-0.8-3.3
		C361.9,114.3,361.3,113.9,360.6,113.9z"/>
	<path class="st3" d="M387.7,108.8v1.4c2-2.3,4.2-3.4,6.5-3.4c1.8,0,3.2,0.8,4.4,2.3c1.2,1.5,1.7,3.4,1.7,5.7c0,1.9-0.4,3.5-1.3,4.7
		c-0.9,1.2-1.9,1.9-3.2,1.9c-1.1,0-2.1-0.4-2.8-1.3c-0.7-0.9-1.1-2-1.1-3.3c0-0.7,0.1-1.5,0.4-2.5c-2,1.6-3,5.3-3,11.1v4.9
		c0,2.1,0.3,3.1,0.9,3.1c0.1,0,0.4,0,0.7,0c0.6,0,1,0,1.1,0c0.7,0,1.2,0.4,1.7,1.1c0.5,0.7,0.7,1.6,0.7,2.6c0,1.1-0.3,2-0.9,2.7
		c-0.6,0.7-1.3,1.1-2.2,1.1c-0.4,0-1.3-0.1-2.6-0.3c-0.9,0-1.9,0-3.2,0c-1.2,0-2.3,0-3.2,0.1c-1.4,0.1-2.3,0.2-2.8,0.2
		c-1,0-1.8-0.4-2.4-1.2c-0.6-0.8-0.9-1.8-0.9-3.1c0-2.2,0.7-3.2,2.2-3.2c0.3,0,0.5,0,0.7,0c0.1,0,0.2,0,0.3,0c0.1,0,0.2,0,0.3,0
		c0.7,0,1-0.9,1-2.8v-13.1c0-1.9-0.3-2.8-0.9-2.8c-0.1,0-0.4,0-0.7,0.1c-0.3,0.1-0.6,0.1-0.7,0.1c-1.5,0-2.3-1.2-2.3-3.6
		c0-2.7,1-4,3.1-4c0.4,0,1.1,0.1,1.9,0.2c0.8,0.1,1.5,0.2,1.9,0.2c0.7,0,1.5-0.1,2.4-0.2c0.4-0.1,0.8-0.1,0.9-0.1
		C387.3,107.3,387.7,107.8,387.7,108.8z"/>
	<path class="st3" d="M425.1,141.7c-2.5,0-4.1-1.1-5-3.4c-2.3,2.3-5.1,3.4-8.3,3.4c-2.8,0-5.1-0.9-6.8-2.7c-1.7-1.8-2.5-4.3-2.5-7.4
		c0-3.3,0.8-5.7,2.3-7.4c1.5-1.6,4.1-2.8,7.8-3.5c2-0.4,3.3-0.9,4.1-1.5c0.7-0.6,1.1-1.5,1.1-2.6c0-2.2-0.9-3.4-2.6-3.4
		c-1,0-1.5,0.4-1.5,1.3c0,0.4,0,0.9,0,1.3v0.2c0,1.1-0.4,2.1-1.2,2.8c-0.8,0.8-1.7,1.1-2.9,1.1c-1.5,0-2.7-0.5-3.7-1.6
		c-1-1.1-1.5-2.4-1.5-3.9c0-2.3,1-4.2,3-5.6c2-1.4,4.6-2.1,7.9-2.1c3.8,0,6.6,0.9,8.4,2.7c1.8,1.8,2.7,4.6,2.7,8.4v13.3
		c0,1.5,0.3,2.3,0.8,2.3c0.2,0,0.4,0,0.5,0c0,0,0.1,0,0.3,0c0.1,0,0.2,0,0.2,0c1.4,0,2.2,1,2.2,3.1c0,1.5-0.5,2.7-1.5,3.7
		C427.9,141.2,426.6,141.7,425.1,141.7z M417.8,127.6v-1.3l-0.5,0.1l-2,0.6c-1.6,0.4-2.6,1-3.2,1.5c-0.6,0.6-0.8,1.4-0.8,2.5
		c0,2.2,0.9,3.3,2.8,3.3c1.1,0,2-0.4,2.7-1.2c0.7-0.8,1-1.8,1-3.1V127.6z"/>
	<path class="st3" d="M443.9,108.2v2c1.7-2.3,3.9-3.5,6.7-3.5c2.4,0,4.6,1.2,6.6,3.7c2.6-2.5,5.3-3.7,8.2-3.7c2.6,0,4.8,0.9,6.5,2.8
		c1.7,1.9,2.6,4.3,2.6,7.2v14.1c0,1.9,0.4,2.8,1.1,2.8c0,0,0.1,0,0.3,0c0.1,0,0.2,0,0.3,0c0.2,0,0.4,0,0.7,0c1.4,0,2.2,1.1,2.2,3.2
		c0,1.2-0.3,2.2-0.9,3c-0.6,0.8-1.4,1.2-2.4,1.2c-0.1,0-0.7,0-1.9-0.1c-0.8-0.1-1.7-0.2-2.8-0.2c-0.5,0-1.3,0.1-2.4,0.2
		c-1,0.1-1.8,0.2-2.3,0.2c-2,0-3-1.4-3-4.2c0-1.7,0.4-2.8,1.3-3.2c0.7-0.3,1.1-1.2,1.1-2.8V121c0-4-1-6-2.9-6c-2,0-3.1,2-3.1,5.9
		V132c0,0.8,0.3,1.3,0.9,1.6c0.9,0.5,1.3,1.5,1.3,3.1c0,2.8-0.9,4.2-2.8,4.2c-0.4,0-1.1-0.1-2-0.2c-0.9-0.1-1.5-0.2-2-0.2
		c-0.5,0-1.1,0-1.7,0.1c-1.1,0.1-1.7,0.2-1.8,0.2c-2,0-3-1.6-3-4.9c0-1.4,0.4-2.3,1.2-2.8c0.6-0.4,1-0.9,1-1.5v-1.5v-9.4
		c0-3.9-1-5.9-2.9-5.9c-2.1,0-3.1,2-3.1,5.9v10.9c0.1,0.6,0.2,0.9,0.3,1.1c0.1,0.1,0.4,0.3,0.8,0.5c0.9,0.5,1.3,1.5,1.3,3
		c0,3-1.1,4.5-3.2,4.5c-0.5,0-1.2-0.1-2.2-0.2c-1-0.1-1.7-0.2-2.2-0.2c-0.5,0-1.2,0.1-2.3,0.2c-1,0.1-1.8,0.2-2.3,0.2
		c-2.2,0-3.4-1.4-3.4-4.2c0-2.1,0.7-3.2,2.2-3.2c0.3,0,0.5,0,0.7,0c0.1,0,0.2,0,0.3,0c0.1,0,0.2,0,0.3,0c0.7,0,1-0.9,1-2.8v-13.2
		c0-1.9-0.3-2.8-0.9-2.8c-0.1,0-0.4,0-0.7,0.1c-0.3,0.1-0.6,0.1-0.7,0.1c-1.5,0-2.3-1.2-2.3-3.6c0-2.7,1-4,3-4
		c0.6,0,1.4,0.1,2.4,0.2c0.6,0.1,1.3,0.1,2.2,0.1c0.6,0,1.3,0,2.1-0.1c0.5-0.1,1-0.2,1.3-0.2C443.6,107.3,443.9,107.6,443.9,108.2z"
		/>
</g>
<polygon class="st3" points="580.7,101.6 577.5,98.4 564.1,98.4 564.1,115.2 577.5,115.2 580.7,112.1 "/>
</svg>
