<?xml version="1.0" encoding="utf-8"?>
<!-- Generator: Adobe Illustrator 21.0.0, SVG Export Plug-In . SVG Version: 6.00 Build 0)  -->
<svg version="1.1" id="Livello_1" xmlns="http://www.w3.org/2000/svg" xmlns:xlink="http://www.w3.org/1999/xlink" x="0px" y="0px"
	 viewBox="0 0 256 256" style="enable-background:new 0 0 256 256;" xml:space="preserve">
<style type="text/css">
	.st0{fill:#0088CC;}
	.st1{fill:none;}
	.st2{fill:#FFFFFF;}
</style>
<path class="st0" d="M215.7,157.6h6.5V98.2h-6.5v6.5h-24.4V74h42C213.8,35.8,173.9,9.6,128,9.6S42.2,35.8,22.6,74h44.3l17.2,17.2
	v32.5L66.9,141H36.2v16.6h6.5V182h-20c19.6,38.2,59.5,64.4,105.4,64.4s85.8-26.2,105.4-64.4h-17.7V157.6z"/>
<path class="st1" d="M118.9,121.1l1.7-1.2C120.1,119.9,119.6,120.4,118.9,121.1z"/>
<path class="st2" d="M183.2,122.3l-19.5,92.1c-1.5,6.5-5.3,8.1-10.8,5.1l-29.8-21.9l-14.4,13.8c-1.6,1.6-2.9,2.9-6,2.9l2.1-30.3
	l55.2-49.8c2.4-2.1-0.5-3.3-3.7-1.2l-68.2,42.9l-29.4-9.2c-6.4-2-6.5-6.4,1.3-9.4L175,113C180.3,111,185,114.2,183.2,122.3z"/>
<g>
	<path d="M66.8,52.1c-0.1,0-0.2,0-0.4,0v1.3l0,0.3c0,0.3,0.1,0.4,0.3,0.4c0.1,0,0.2,0,0.3,0c0.2,0,0.3,0,0.4,0c0.7,0,1,0.4,1,1.2
		c0,0.4-0.1,0.8-0.3,1.1c-0.2,0.3-0.5,0.4-0.9,0.4c-0.2,0-0.5,0-0.9-0.1c-0.4,0-0.7-0.1-0.9-0.1c-0.2,0-0.6,0-1.1,0.1
		c-0.5,0-0.9,0.1-1.1,0.1c-0.4,0-0.7-0.1-0.9-0.4c-0.2-0.3-0.4-0.6-0.4-1.1c0-0.3,0.1-0.6,0.2-0.9c0.2-0.2,0.3-0.4,0.6-0.4
		c0,0,0,0,0.1,0c0.1,0,0.1,0,0.1,0c0,0,0.1,0,0.1,0c0.2,0,0.3-0.1,0.3-0.4v-7.2c0-0.2-0.1-0.4-0.3-0.4c0,0-0.1,0-0.2,0
		c-0.1,0-0.1,0-0.2,0c-0.2,0-0.4-0.1-0.6-0.4c-0.2-0.2-0.2-0.5-0.2-0.9c0-0.5,0.1-0.8,0.4-1.1c0.2-0.3,0.6-0.4,0.9-0.4
		c0.3,0,0.7,0,1.2,0.1c0.6,0,1,0.1,1.2,0.1c0.3,0,0.7,0,1.2-0.1c0.5,0,1-0.1,1.2-0.1c1,0,1.9,0.4,2.5,1.2c0.6,0.8,1,1.8,1,3.1
		c0,1.6-0.5,2.8-1.4,3.6c-0.5,0.4-1,0.7-1.7,0.8C68.3,52,67.7,52.1,66.8,52.1z M66.4,47v2.6c0.2,0,0.3,0,0.5,0
		c1.1,0,1.7-0.6,1.7-1.8c0-0.6-0.1-1-0.4-1.3c-0.3-0.3-0.6-0.5-1.1-0.5c-0.3,0-0.5,0.1-0.6,0.2C66.4,46.4,66.4,46.7,66.4,47z"/>
	<path d="M76.4,57c-1.2,0-2.2-0.5-2.9-1.4c-0.7-0.9-1-2.2-1-3.8c0-1.7,0.3-3,1-3.9c0.7-0.9,1.7-1.4,2.9-1.4c1.2,0,2.2,0.4,2.8,1.3
		c0.7,0.9,1,2.1,1,3.7c0,1.7-0.3,3.1-1,4C78.6,56.5,77.7,57,76.4,57z M76.5,49c-0.9,0-1.3,0.9-1.3,2.6c0,0.1,0,0.1,0,0.2
		c0,0.9,0.1,1.5,0.3,2c0.2,0.5,0.5,0.7,0.9,0.7c0.9,0,1.3-0.9,1.3-2.8c0-0.9-0.1-1.5-0.3-2.1C77.2,49.2,76.9,49,76.5,49z"/>
	<path d="M84.4,46.6c0.6,0,1.2,0.2,2,0.7c0.1-0.5,0.4-0.7,0.9-0.7c0.6,0,1,0.3,1,0.8v1v1c0,0.5-0.3,0.8-0.9,0.8
		c-0.4,0-0.6,0-0.7-0.1c-0.1-0.1-0.3-0.2-0.4-0.5c-0.3-0.6-0.7-0.9-1.1-0.9c-0.6,0-0.9,0.3-0.9,0.8c0,0.3,0.1,0.5,0.3,0.6
		c0.2,0.1,0.7,0.3,1.4,0.4c1.2,0.3,2,0.7,2.3,1.4c0.2,0.5,0.3,1,0.3,1.6c0,1-0.3,1.8-0.9,2.5c-0.6,0.6-1.3,0.9-2.2,0.9
		c-0.8,0-1.5-0.3-2.2-0.9c-0.1,0.4-0.3,0.7-0.8,0.7c-0.7,0-1-0.3-1-0.9l0.1-1.1v-0.6c0-0.1,0-0.2,0-0.3c0-0.1,0-0.2,0-0.2
		c0-0.6,0.3-0.9,1-0.9c0.4,0,0.6,0,0.7,0.1c0.1,0.1,0.3,0.3,0.4,0.7c0.3,0.7,0.7,1.1,1.3,1.1c0.7,0,1-0.3,1-0.9
		c0-0.5-0.3-0.8-0.9-0.9l-0.9-0.2c-1.6-0.3-2.5-1.3-2.5-2.9c0-0.9,0.3-1.7,0.8-2.3C82.9,46.9,83.6,46.6,84.4,46.6z"/>
	<path d="M93.1,49.5V54c0,0.3,0.1,0.5,0.4,0.5c0.3,0,0.4-0.2,0.4-0.7v-1.1c0-0.6,0.3-0.9,0.8-0.9c0.4,0,0.7,0.1,0.8,0.4
		c0.1,0.3,0.2,0.7,0.2,1.4c0,0.9-0.1,1.5-0.3,2c-0.4,0.9-1.1,1.4-2.3,1.4c-0.8,0-1.4-0.2-1.9-0.7s-0.7-1.1-0.7-2v-4.7
		c0-0.4-0.1-0.6-0.4-0.6h-0.5c-0.5,0-0.8-0.3-0.8-1c0-0.5,0.1-0.8,0.2-0.9c0.1-0.2,0.4-0.3,0.8-0.3h0.4c0.2,0,0.3-0.1,0.3-0.4v-1.5
		c0-0.6,0.4-0.9,1.3-0.9c0.5,0,0.8,0.1,1,0.2c0.2,0.1,0.3,0.4,0.3,0.8v1.4c0,0.2,0.2,0.4,0.5,0.4h0.9c0.7,0,1,0.4,1,1.1
		c0,0.4-0.1,0.7-0.2,0.8c-0.1,0.2-0.3,0.2-0.6,0.2h-0.8c-0.3,0-0.5,0-0.6,0.1C93.2,49.1,93.1,49.3,93.1,49.5z"/>
	<path d="M105,49.5V54c0,0.3,0.1,0.5,0.4,0.5c0.3,0,0.4-0.2,0.4-0.7v-1.1c0-0.6,0.3-0.9,0.8-0.9c0.4,0,0.7,0.1,0.8,0.4
		c0.1,0.3,0.2,0.7,0.2,1.4c0,0.9-0.1,1.5-0.3,2c-0.4,0.9-1.1,1.4-2.3,1.4c-0.8,0-1.4-0.2-1.9-0.7s-0.7-1.1-0.7-2v-4.7
		c0-0.4-0.1-0.6-0.4-0.6h-0.5c-0.5,0-0.8-0.3-0.8-1c0-0.5,0.1-0.8,0.2-0.9c0.1-0.2,0.4-0.3,0.8-0.3h0.4c0.2,0,0.3-0.1,0.3-0.4v-1.5
		c0-0.6,0.4-0.9,1.3-0.9c0.5,0,0.8,0.1,1,0.2c0.2,0.1,0.3,0.4,0.3,0.8v1.4c0,0.2,0.2,0.4,0.5,0.4h0.9c0.7,0,1,0.4,1,1.1
		c0,0.4-0.1,0.7-0.2,0.8c-0.1,0.2-0.3,0.2-0.6,0.2h-0.8c-0.3,0-0.5,0-0.6,0.1C105,49.1,105,49.3,105,49.5z"/>
	<path d="M112.4,57c-1.2,0-2.2-0.5-2.9-1.4c-0.7-0.9-1-2.2-1-3.8c0-1.7,0.3-3,1-3.9c0.7-0.9,1.7-1.4,2.9-1.4c1.2,0,2.2,0.4,2.8,1.3
		c0.7,0.9,1,2.1,1,3.7c0,1.7-0.3,3.1-1,4C114.6,56.5,113.6,57,112.4,57z M112.4,49c-0.9,0-1.3,0.9-1.3,2.6c0,0.1,0,0.1,0,0.2
		c0,0.9,0.1,1.5,0.3,2c0.2,0.5,0.5,0.7,0.9,0.7c0.9,0,1.3-0.9,1.3-2.8c0-0.9-0.1-1.5-0.3-2.1C113.1,49.2,112.8,49,112.4,49z"/>
	<path d="M125.6,53.6V47c0-0.4,0-0.6,0-0.7c-0.1-0.3-0.2-0.4-0.5-0.4c-0.3,0-0.5,0.2-0.5,0.7v0.2l0.1,0.7c0,0.1,0,0.3,0,0.5
		c0,1.1-0.4,1.7-1.3,1.7c-0.8,0-1.2-0.5-1.2-1.4c0-0.2,0-0.6,0.1-1.1c0-0.5,0-0.8,0-1.1c0-0.2,0-0.5,0-0.9c0-0.4-0.1-0.7-0.1-0.9
		c0-0.7,0.3-1,1-1h0.1l1.9,0.1c0.9,0,1.8,0.1,2.6,0.1c0.7,0,1.3,0,1.7-0.1c0.6-0.1,1.1-0.1,1.5-0.1c0.7,0,1,0.4,1,1.1
		c0,0,0,0.1,0,0.3c0,0.2,0,0.4,0,0.6c0,0.6,0,0.9,0,0.8c0,0.2,0,0.5,0,0.9c0,0.4,0,0.7,0,0.9c0,1.1-0.4,1.6-1.2,1.6
		c-0.9,0-1.3-0.5-1.3-1.6c0-0.3,0-0.6,0-0.8l0.1-0.7c0-0.4-0.2-0.6-0.5-0.6c-0.4,0-0.5,0.4-0.5,1.1v6.7c0,0.3,0.1,0.4,0.3,0.4
		c0.1,0,0.2,0,0.3,0c0.1,0,0.2,0,0.3,0c0.6,0,1,0.4,1,1.3c0,0.4-0.1,0.8-0.3,1.1c-0.2,0.3-0.5,0.4-0.9,0.4c-0.2,0-0.6,0-1-0.1
		c-0.5,0-0.8-0.1-1-0.1c-0.2,0-0.6,0-1.1,0.1c-0.5,0-0.8,0.1-1.1,0.1c-0.4,0-0.7-0.1-0.9-0.4c-0.2-0.3-0.3-0.6-0.3-1.1
		c0-0.9,0.3-1.3,1-1.3c0.1,0,0.2,0,0.3,0c0.1,0,0.2,0,0.3,0C125.5,54.1,125.6,53.9,125.6,53.6z"/>
	<path d="M139.3,52.3h-4v0.3c0,1.4,0.4,2.1,1.3,2.1c0.6,0,1-0.3,1.2-1c0.1-0.4,0.2-0.6,0.3-0.7c0.1-0.1,0.4-0.2,0.7-0.2
		c0.8,0,1.3,0.4,1.3,1.3c0,0.8-0.3,1.5-0.9,2c-0.6,0.5-1.4,0.8-2.4,0.8c-1.3,0-2.3-0.4-3-1.3c-0.7-0.9-1.1-2.1-1.1-3.7
		c0-1.7,0.3-3,1-4c0.7-0.9,1.6-1.4,2.9-1.4c1.1,0,2,0.4,2.6,1.2c0.7,0.8,1,1.9,1,3.2c0,0.5-0.1,0.9-0.2,1.1
		C139.9,52.3,139.7,52.3,139.3,52.3z M135.4,50.4h2.2v-0.2c0-0.4-0.1-0.7-0.3-1c-0.2-0.3-0.4-0.4-0.7-0.4
		C135.9,48.8,135.5,49.3,135.4,50.4z"/>
	<path d="M144.2,43.3c0.4,0,0.6,0.2,0.6,0.7v9.7c0,0.6,0.1,0.8,0.3,0.8c0,0,0,0,0.1,0c0,0,0.1,0,0.1,0c0,0,0.1,0,0.2,0
		c0.4,0,0.6,0.3,0.6,0.9c0,0.9-0.3,1.3-1,1.3c-0.1,0-0.4,0-0.8-0.1c-0.3,0-0.6,0-0.9,0c-0.2,0-0.4,0-0.7,0c-0.3,0-0.6,0-0.7,0
		c-0.6,0-1-0.4-1-1.3c0-0.6,0.2-1,0.6-1c0.1,0,0.2,0,0.2,0c0,0,0.1,0,0.1,0c0,0,0.1,0,0.1,0c0.2,0,0.3-0.3,0.3-0.8v-7.3
		c0-0.6-0.1-0.8-0.3-0.8c-0.1,0-0.1,0-0.2,0c-0.1,0-0.2,0-0.2,0c-0.5,0-0.7-0.4-0.7-1.1c0-0.8,0.3-1.2,0.9-1.2c0.1,0,0.4,0,0.8,0.1
		c0.3,0,0.6,0,0.8,0L144.2,43.3L144.2,43.3z"/>
	<path d="M153.3,52.3h-4v0.3c0,1.4,0.4,2.1,1.3,2.1c0.6,0,1-0.3,1.2-1c0.1-0.4,0.2-0.6,0.3-0.7c0.1-0.1,0.4-0.2,0.7-0.2
		c0.8,0,1.3,0.4,1.3,1.3c0,0.8-0.3,1.5-0.9,2c-0.6,0.5-1.4,0.8-2.4,0.8c-1.3,0-2.3-0.4-3-1.3c-0.7-0.9-1.1-2.1-1.1-3.7
		c0-1.7,0.3-3,1-4c0.7-0.9,1.6-1.4,2.9-1.4c1.1,0,2,0.4,2.6,1.2c0.7,0.8,1,1.9,1,3.2c0,0.5-0.1,0.9-0.2,1.1
		C153.8,52.3,153.6,52.3,153.3,52.3z M149.4,50.4h2.2v-0.2c0-0.4-0.1-0.7-0.3-1c-0.2-0.3-0.4-0.4-0.7-0.4
		C149.8,48.8,149.4,49.3,149.4,50.4z"/>
	<path d="M160.9,47v0.1c1,0.6,1.5,1.6,1.5,2.9c0,1-0.3,1.9-0.9,2.5c-0.6,0.6-1.4,1-2.3,1c-0.5,0-1-0.1-1.5-0.4
		c-0.2,0.1-0.3,0.3-0.3,0.5c0,0.4,0.6,0.6,1.7,0.7c0.5,0,0.9,0,1.2,0.1c0.5,0,0.9,0.1,1.3,0.3c1,0.5,1.6,1.3,1.6,2.5
		c0,1.1-0.4,1.9-1.2,2.6c-0.8,0.7-1.8,1-3.1,1c-1.2,0-2.2-0.3-2.9-0.8c-0.7-0.5-1-1.2-1-2.1c0-0.9,0.4-1.6,1.1-2.1
		c-0.6-0.5-0.9-1-0.9-1.7c0-0.7,0.4-1.4,1.1-2.1c-0.3-0.6-0.4-1.3-0.4-2c0-1,0.3-1.8,0.9-2.4c0.6-0.6,1.4-0.9,2.4-0.9h0.1
		c0.1-1.3,0.7-2,2-2c0.5,0,1,0.1,1.3,0.4c0.3,0.3,0.5,0.6,0.5,1.1c0,0.3-0.1,0.6-0.3,0.9c-0.2,0.2-0.4,0.3-0.7,0.3
		c-0.3,0-0.5-0.1-0.6-0.2l-0.2-0.2c0-0.1-0.1-0.1-0.2-0.1C160.9,46.8,160.9,46.9,160.9,47z M159,56.5c-0.3,0-0.6,0-0.9-0.1
		c-0.5,0.2-0.8,0.5-0.8,1c0,0.3,0.1,0.5,0.4,0.7c0.3,0.2,0.6,0.3,1.1,0.3c1,0,1.6-0.3,1.6-1C160.4,56.8,159.9,56.5,159,56.5z
		 M159,48.7c-0.5,0-0.8,0.5-0.8,1.4c0,0.9,0.3,1.3,0.8,1.3c0.2,0,0.4-0.1,0.6-0.4c0.1-0.3,0.2-0.6,0.2-1c0-0.4-0.1-0.7-0.2-1
		C159.4,48.8,159.2,48.7,159,48.7z"/>
	<path d="M167,47.2v0.4c0.6-0.7,1.2-1,1.9-1c0.5,0,0.9,0.2,1.3,0.7c0.3,0.5,0.5,1,0.5,1.7c0,0.6-0.1,1-0.4,1.4
		c-0.3,0.4-0.6,0.5-1,0.5c-0.3,0-0.6-0.1-0.8-0.4c-0.2-0.3-0.3-0.6-0.3-1c0-0.2,0-0.4,0.1-0.7c-0.6,0.5-0.9,1.6-0.9,3.3v1.5
		c0,0.6,0.1,0.9,0.3,0.9c0,0,0.1,0,0.2,0c0.2,0,0.3,0,0.3,0c0.2,0,0.4,0.1,0.5,0.3c0.1,0.2,0.2,0.5,0.2,0.8c0,0.3-0.1,0.6-0.3,0.8
		c-0.2,0.2-0.4,0.3-0.7,0.3c-0.1,0-0.4,0-0.8-0.1c-0.3,0-0.6,0-1,0c-0.4,0-0.7,0-1,0c-0.4,0-0.7,0.1-0.8,0.1c-0.3,0-0.5-0.1-0.7-0.3
		c-0.2-0.2-0.3-0.5-0.3-0.9c0-0.6,0.2-1,0.7-1c0.1,0,0.2,0,0.2,0c0,0,0.1,0,0.1,0c0,0,0.1,0,0.1,0c0.2,0,0.3-0.3,0.3-0.8v-3.9
		c0-0.6-0.1-0.8-0.3-0.8c0,0-0.1,0-0.2,0c-0.1,0-0.2,0-0.2,0c-0.5,0-0.7-0.4-0.7-1.1c0-0.8,0.3-1.2,0.9-1.2c0.1,0,0.3,0,0.6,0
		c0.2,0,0.4,0,0.6,0c0.2,0,0.5,0,0.7-0.1c0.1,0,0.2,0,0.3,0C166.9,46.8,167,46.9,167,47.2z"/>
	<path d="M178.1,56.9c-0.7,0-1.2-0.3-1.5-1c-0.7,0.7-1.5,1-2.5,1c-0.8,0-1.5-0.3-2-0.8c-0.5-0.5-0.7-1.3-0.7-2.2
		c0-1,0.2-1.7,0.7-2.2c0.4-0.5,1.2-0.8,2.3-1c0.6-0.1,1-0.3,1.2-0.4c0.2-0.2,0.3-0.4,0.3-0.8c0-0.7-0.3-1-0.8-1
		c-0.3,0-0.4,0.1-0.4,0.4c0,0.1,0,0.3,0,0.4v0.1c0,0.3-0.1,0.6-0.3,0.8c-0.2,0.2-0.5,0.3-0.9,0.3c-0.4,0-0.8-0.2-1.1-0.5
		c-0.3-0.3-0.4-0.7-0.4-1.2c0-0.7,0.3-1.2,0.9-1.7c0.6-0.4,1.4-0.6,2.3-0.6c1.1,0,2,0.3,2.5,0.8c0.5,0.5,0.8,1.4,0.8,2.5v3.9
		c0,0.5,0.1,0.7,0.2,0.7c0.1,0,0.1,0,0.2,0c0,0,0,0,0.1,0c0,0,0,0,0.1,0c0.4,0,0.6,0.3,0.6,0.9c0,0.4-0.1,0.8-0.4,1.1
		C178.9,56.8,178.6,56.9,178.1,56.9z M176,52.8v-0.4l-0.2,0l-0.6,0.2c-0.5,0.1-0.8,0.3-0.9,0.4c-0.2,0.2-0.2,0.4-0.2,0.7
		c0,0.7,0.3,1,0.8,1c0.3,0,0.6-0.1,0.8-0.4c0.2-0.2,0.3-0.5,0.3-0.9V52.8z"/>
	<path d="M183.7,47v0.6c0.5-0.7,1.1-1,2-1c0.7,0,1.4,0.4,2,1.1c0.8-0.7,1.6-1.1,2.4-1.1c0.8,0,1.4,0.3,1.9,0.8
		c0.5,0.6,0.8,1.3,0.8,2.1v4.2c0,0.6,0.1,0.8,0.3,0.8c0,0,0,0,0.1,0c0,0,0.1,0,0.1,0c0.1,0,0.1,0,0.2,0c0.4,0,0.6,0.3,0.6,0.9
		c0,0.4-0.1,0.7-0.3,0.9c-0.2,0.2-0.4,0.3-0.7,0.3c0,0-0.2,0-0.6,0c-0.2,0-0.5-0.1-0.8-0.1c-0.2,0-0.4,0-0.7,0c-0.3,0-0.5,0-0.7,0
		c-0.6,0-0.9-0.4-0.9-1.3c0-0.5,0.1-0.8,0.4-1c0.2-0.1,0.3-0.4,0.3-0.8v-2.9c0-1.2-0.3-1.8-0.9-1.8c-0.6,0-0.9,0.6-0.9,1.7v3.3
		c0,0.2,0.1,0.4,0.3,0.5c0.3,0.1,0.4,0.5,0.4,0.9c0,0.8-0.3,1.3-0.8,1.3c-0.1,0-0.3,0-0.6,0c-0.3,0-0.4,0-0.6,0c-0.2,0-0.3,0-0.5,0
		c-0.3,0-0.5,0.1-0.5,0.1c-0.6,0-0.9-0.5-0.9-1.4c0-0.4,0.1-0.7,0.4-0.8c0.2-0.1,0.3-0.3,0.3-0.4v-0.4v-2.8c0-1.2-0.3-1.7-0.9-1.7
		c-0.6,0-0.9,0.6-0.9,1.7V54c0,0.2,0.1,0.3,0.1,0.3c0,0,0.1,0.1,0.2,0.2c0.3,0.1,0.4,0.4,0.4,0.9c0,0.9-0.3,1.3-1,1.3
		c-0.1,0-0.4,0-0.6,0c-0.3,0-0.5,0-0.6,0c-0.1,0-0.4,0-0.7,0c-0.3,0-0.5,0-0.7,0c-0.7,0-1-0.4-1-1.2c0-0.6,0.2-0.9,0.6-0.9
		c0.1,0,0.1,0,0.2,0c0,0,0.1,0,0.1,0c0,0,0.1,0,0.1,0c0.2,0,0.3-0.3,0.3-0.8v-3.9c0-0.6-0.1-0.8-0.3-0.8c0,0-0.1,0-0.2,0
		c-0.1,0-0.2,0-0.2,0c-0.5,0-0.7-0.4-0.7-1.1c0-0.8,0.3-1.2,0.9-1.2c0.2,0,0.4,0,0.7,0.1c0.2,0,0.4,0,0.6,0c0.2,0,0.4,0,0.6,0
		c0.2,0,0.3-0.1,0.4-0.1C183.6,46.8,183.7,46.9,183.7,47z"/>
</g>
<polygon class="st0" points="54.5,101.7 51,98.2 36.2,98.2 36.2,116.8 51,116.8 54.5,113.3 "/>
</svg>
